<svg id="Layer_1" data-name="Layer 1" xmlns="http://www.w3.org/2000/svg" xmlns:xlink="http://www.w3.org/1999/xlink" viewBox="0 0 444 112"><defs><style>.cls-1{fill:url(#linear-gradient);}.cls-2{fill:#011c26;}</style><linearGradient id="linear-gradient" x1="116.78" y1="87.2" x2="10.73" y2="15.76" gradientUnits="userSpaceOnUse"><stop offset="0" stop-color="#f44868"/><stop offset="0.52" stop-color="#974063"/><stop offset="0.95" stop-color="#41436a"/></linearGradient></defs><title>logo</title><path class="cls-1" d="M109.94,31.69H86.36a7.89,7.89,0,0,1-6.82-3.93L70.83,12.67a8,8,0,0,0-6.89-4H31.56a8,8,0,0,0-6.89,4L8.48,40.72a8,8,0,0,0,0,8L24.67,76.72a8,8,0,0,0,6.89,4H55.14A7.9,7.9,0,0,1,62,84.63l8.71,15.09a8,8,0,0,0,6.89,4h32.38a8,8,0,0,0,6.89-4l16.19-28a8,8,0,0,0,0-8l-16.19-28A8,8,0,0,0,109.94,31.69ZM49.7,59.57A15,15,0,1,1,62.63,46.64,15,15,0,0,1,49.7,59.57Zm46,23a15,15,0,1,1,12.93-12.93A15,15,0,0,1,95.7,82.57Z"/><path class="cls-2" d="M189.08,75.08c-6.91,0-11.9-2.85-11.9-12.4V47.43h-7.06v-8h2.36c3.7,0,5.62-2.07,5.62-4.92v-4.7h10v9h9v8.69h-9V61.61c0,2.71,1.21,4,3.14,4a7.73,7.73,0,0,0,3.49-1.07L196.77,73A14.77,14.77,0,0,1,189.08,75.08Z"/><path class="cls-2" d="M199.06,56.55c0-11.26,8.83-18.53,19.24-18.53s19.09,7.27,19.09,18.46-8.62,18.6-19.09,18.6S199.06,67.74,199.06,56.55Zm27.5,0c0-5.06-3.35-8.91-8.26-8.91s-8.41,3.85-8.41,8.91,3.49,8.91,8.41,8.91S226.56,61.68,226.56,56.55Z"/><path class="cls-2" d="M241.1,56.55c0-11.26,8.84-18.53,19.24-18.53s19.1,7.27,19.1,18.46-8.62,18.6-19.1,18.6S241.1,67.74,241.1,56.55Zm27.51,0c0-5.06-3.35-8.91-8.27-8.91s-8.41,3.85-8.41,8.91,3.5,8.91,8.41,8.91S268.61,61.68,268.61,56.55Z"/><path class="cls-2" d="M294.91,23.77v50.6H283.86V23.77Z"/><path class="cls-2" d="M338,56.48c0,11.69-7.84,18.67-16.89,18.67-4.13,0-7.12-1.57-8.76-3.49v2.71h-.07V88.62H301.75V38.74h8.41l1.07,3.56h1a11.53,11.53,0,0,1,9.48-4.2C330.47,38.1,338,45,338,56.48Zm-10.69.14c0-5.13-3.13-8.83-7.48-8.83s-7.48,3.7-7.48,8.83,3,8.77,7.48,8.77S327.33,61.75,327.33,56.62Z"/><path class="cls-2" d="M341.73,56.55C341.73,45.29,350.56,38,361,38s19.1,7.27,19.1,18.46-8.63,18.6-19.1,18.6S341.73,67.74,341.73,56.55Zm27.5,0c0-5.06-3.34-8.91-8.26-8.91s-8.41,3.85-8.41,8.91,3.49,8.91,8.41,8.91S369.23,61.68,369.23,56.55Z"/><path class="cls-2" d="M383.77,56.55C383.77,45.29,392.61,38,403,38s19.1,7.27,19.1,18.46-8.62,18.6-19.1,18.6S383.77,67.74,383.77,56.55Zm27.51,0c0-5.06-3.35-8.91-8.27-8.91s-8.4,3.85-8.4,8.91,3.49,8.91,8.4,8.91S411.28,61.68,411.28,56.55Z"/><path class="cls-2" d="M437.58,23.77v50.6H426.53V23.77Z"/></svg>