<svg id="Layer_1" data-name="Layer 1" xmlns="http://www.w3.org/2000/svg" xmlns:xlink="http://www.w3.org/1999/xlink" viewBox="0 0 214 206"><defs><style>.cls-1{fill:url(#linear-gradient);}.cls-2{fill:url(#linear-gradient-2);}.cls-3{fill:url(#linear-gradient-3);}</style><linearGradient id="linear-gradient" x1="167.65" y1="171.59" x2="82.25" y2="47.68" gradientUnits="userSpaceOnUse"><stop offset="0" stop-color="#f44868"/><stop offset="0.52" stop-color="#974063"/><stop offset="0.95" stop-color="#41436a"/></linearGradient><linearGradient id="linear-gradient-2" x1="150.46" y1="183.43" x2="65.07" y2="59.53" xlink:href="#linear-gradient"/><linearGradient id="linear-gradient-3" x1="159.05" y1="177.51" x2="73.66" y2="53.6" xlink:href="#linear-gradient"/></defs><title>symbol</title><path class="cls-1" d="M125.57,100.41a12.62,12.62,0,1,0,14.15,14.15A12.65,12.65,0,0,0,125.57,100.41Z"/><path class="cls-2" d="M86.9,81.07a12.62,12.62,0,1,0,14.15,14.15A12.65,12.65,0,0,0,86.9,81.07Z"/><path class="cls-3" d="M107.88,9.25a94,94,0,1,0,94,94A94,94,0,0,0,107.88,9.25Zm52.35,107-13.61,23.58a6.7,6.7,0,0,1-5.8,3.34H113.6a6.67,6.67,0,0,1-5.79-3.34l-7.33-12.68a6.6,6.6,0,0,0-5.73-3.31H74.93a6.71,6.71,0,0,1-5.8-3.35L55.52,96.93a6.71,6.71,0,0,1,0-6.69L69.13,66.66a6.7,6.7,0,0,1,5.8-3.34h27.22a6.67,6.67,0,0,1,5.79,3.34l7.33,12.68A6.6,6.6,0,0,0,121,82.65h19.82a6.71,6.71,0,0,1,5.8,3.35l13.61,23.57A6.71,6.71,0,0,1,160.23,116.26Z"/></svg>